<?xml version="1.0" standalone="no"?>
<!DOCTYPE svg PUBLIC "-//W3C//DTD SVG 20010904//EN"
 "http://www.w3.org/TR/2001/REC-SVG-20010904/DTD/svg10.dtd">
<svg version="1.0" xmlns="http://www.w3.org/2000/svg"
 width="530.000000pt" height="530.000000pt" viewBox="0 0 530.000000 530.000000"
 preserveAspectRatio="xMidYMid meet">
<metadata>
Created by potrace 1.11, written by Peter Selinger 2001-2013
</metadata>
<g transform="translate(0.000000,530.000000) scale(0.100000,-0.100000)"
fill="#000000" stroke="none">
<path d="M980 3730 c-217 -47 -390 -137 -542 -282 -170 -162 -279 -359 -329
-598 -18 -84 -18 -344 0 -425 33 -148 84 -275 157 -387 165 -256 392 -419 689
-495 142 -37 377 -39 525 -4 513 119 879 572 894 1107 3 113 -3 151 -20 121
-14 -23 -76 -57 -106 -57 -15 0 -38 4 -52 10 l-26 10 -1 -93 c-2 -118 -4 -140
-30 -240 -90 -353 -375 -628 -739 -712 -86 -19 -260 -27 -340 -14 -30 5 -69
11 -87 14 -17 2 -68 18 -113 35 -338 123 -571 392 -651 750 -26 116 -21 340 9
452 142 523 638 853 1158 771 163 -25 288 -75 429 -169 135 -89 230 -190 319
-334 57 -93 60 -83 4 13 -165 286 -426 468 -758 532 -97 18 -293 16 -390 -5z"/>
<path d="M1046 3583 c-2 -2 -16 -6 -32 -9 -104 -17 -237 -72 -342 -141 -68
-45 -195 -169 -241 -236 -62 -90 -131 -250 -145 -337 -3 -19 -8 -46 -11 -60
-6 -28 -7 -222 -1 -260 15 -88 21 -113 46 -182 213 -582 916 -799 1410 -435
158 116 289 304 339 485 18 67 19 71 2 63 -10 -6 -30 -11 -44 -13 -20 -3 -33
-15 -48 -44 -107 -200 -307 -257 -440 -124 -27 27 -49 56 -49 66 0 11 -20 -3
-61 -40 -140 -130 -308 -166 -454 -96 -150 72 -237 235 -230 435 11 294 174
576 397 689 226 114 391 45 392 -164 0 -89 -20 -156 -69 -222 -89 -121 -197
-138 -281 -46 l-37 42 35 12 c86 30 173 107 214 191 79 161 -43 247 -188 132
-129 -103 -258 -398 -273 -624 -10 -168 76 -351 182 -386 75 -24 176 7 269 82
58 49 74 77 70 129 -3 55 20 163 48 219 54 105 166 181 269 181 23 0 62 7 86
15 41 15 46 14 85 -5 45 -21 83 -75 94 -133 9 -43 8 -141 -2 -200 l-7 -48 31
16 c42 22 48 44 44 155 -14 438 -312 793 -742 884 -59 13 -305 19 -316 9z"/>
<path d="M3842 3278 c-20 -5 -41 -22 -57 -46 -25 -38 -62 -134 -71 -187 -3
-16 -9 -48 -14 -70 -18 -82 -38 -252 -49 -407 0 -9 -14 -21 -30 -26 -29 -10
-30 -9 -42 26 -23 72 -90 145 -191 208 l-56 36 1 67 c1 79 -5 91 -42 91 -30 0
-99 -41 -116 -69 -29 -47 -22 -104 17 -148 11 -12 18 -25 15 -30 -3 -4 -8 -24
-11 -43 -26 -170 -132 -360 -199 -360 -46 0 -51 69 -17 241 50 250 33 344 -61
341 -58 -1 -134 -56 -205 -147 -57 -74 -58 -75 -50 -48 4 13 9 34 12 49 3 14
13 48 23 75 l19 49 -33 20 c-47 29 -86 34 -127 17 -80 -33 -100 -114 -103
-417 -1 -124 0 -232 2 -241 6 -21 55 -31 89 -19 34 13 60 76 84 200 29 151
126 335 173 328 37 -5 34 -99 -10 -268 -9 -34 -5 -147 6 -181 16 -49 61 -90
110 -99 32 -6 51 -3 88 15 83 40 127 94 209 259 41 83 74 156 74 163 0 19 16
16 42 -9 39 -37 57 -74 60 -118 l3 -41 -54 -19 c-130 -47 -183 -142 -116 -209
32 -33 111 -39 190 -16 74 21 157 100 175 164 8 30 18 45 37 52 14 5 27 8 28
7 2 -2 5 -21 8 -43 23 -165 143 -233 284 -161 138 69 231 231 239 411 4 107
-15 163 -68 195 -40 24 -76 25 -125 5 -45 -19 -67 -38 -104 -89 -34 -46 -35
-37 -8 69 11 44 22 90 24 101 8 35 53 152 81 205 28 57 26 64 -32 99 -41 26
-60 29 -102 18z m154 -616 c-6 -141 -79 -322 -141 -350 -37 -17 -49 14 -47
115 3 193 115 410 174 341 15 -16 17 -35 14 -106z m-626 -263 c0 -16 -20 -51
-43 -76 -42 -47 -107 -10 -72 40 23 33 115 62 115 36z"/>
<path d="M4391 3119 c-58 -35 -74 -123 -33 -178 39 -52 122 -52 172 1 37 38
54 92 38 122 -23 43 -45 55 -124 70 -12 3 -36 -4 -53 -15z"/>
<path d="M2200 3031 c-54 -22 -90 -80 -85 -137 6 -79 62 -134 134 -134 36 0
100 58 102 93 7 106 -31 168 -111 181 -14 2 -32 1 -40 -3z"/>
<path d="M4764 2881 c-126 -42 -217 -175 -231 -336 -7 -79 -26 -130 -72 -193
-26 -35 -37 -43 -58 -40 -20 2 -29 11 -35 33 -9 29 -4 143 8 215 8 50 62 211
80 238 19 29 6 47 -39 58 -98 23 -168 -46 -207 -201 -31 -129 -15 -322 33
-385 44 -58 119 -67 185 -22 43 29 97 91 107 123 9 27 22 24 39 -9 44 -85 141
-143 239 -143 78 1 97 5 166 39 90 45 194 180 170 223 -15 29 -25 23 -57 -34
-32 -57 -87 -111 -131 -129 -14 -6 -47 -12 -73 -14 -57 -3 -101 23 -129 75
l-19 35 48 26 c159 87 271 214 272 309 0 109 -157 179 -296 132z m116 -53 c10
-67 9 -87 -9 -146 -11 -37 -34 -87 -50 -112 -34 -52 -88 -106 -97 -98 -3 4 -6
33 -6 65 -1 120 80 293 138 293 13 0 24 -1 24 -2z"/>
<path d="M1764 2840 c-67 -27 -126 -186 -125 -337 1 -123 72 -185 169 -147 53
21 134 114 99 114 -25 0 -94 69 -117 117 -29 62 -37 163 -17 221 8 23 14 42
13 41 0 0 -11 -4 -22 -9z"/>
<path d="M1886 2735 c-9 -9 -16 -19 -17 -23 0 -4 -3 -20 -5 -35 -7 -42 13 -93
48 -122 38 -32 46 -23 54 62 8 93 -38 160 -80 118z"/>
<path d="M2306 2095 c-64 -43 -69 -160 -8 -203 36 -26 99 -34 139 -17 37 15
41 26 18 45 -12 10 -19 10 -27 2 -21 -21 -77 -14 -103 13 -62 61 11 170 88
133 20 -10 57 -2 57 12 0 17 -60 41 -97 38 -20 -1 -50 -12 -67 -23z"/>
<path d="M2600 2015 c-65 -139 -67 -145 -37 -145 15 0 28 8 34 23 10 22 17 24
74 22 54 -1 64 -4 72 -23 6 -14 19 -22 34 -22 27 0 28 2 9 43 -8 18 -33 71
-55 119 -33 74 -43 87 -62 85 -18 -1 -31 -20 -69 -102z m89 0 c12 -25 21 -47
21 -50 0 -3 -18 -5 -41 -5 -37 0 -40 2 -34 23 4 12 11 26 16 32 5 5 9 17 9 27
0 28 6 22 29 -27z"/>
<path d="M2907 2113 c-4 -3 -7 -60 -7 -125 l0 -118 86 0 c82 0 85 1 82 22 -3
19 -10 21 -63 22 l-60 1 1 95 c0 85 -6 109 -27 110 -3 0 -9 -3 -12 -7z"/>
<path d="M3222 2100 c-18 -11 -38 -32 -44 -48 -24 -60 -6 -138 40 -168 35 -23
112 -23 147 0 24 16 25 19 10 30 -13 9 -27 10 -57 2 -53 -14 -90 6 -102 57 -8
31 -6 42 10 64 26 35 69 46 104 28 20 -11 30 -11 39 -2 17 17 14 25 -19 42
-40 21 -89 19 -128 -5z"/>
<path d="M3485 2109 c-3 -5 -6 -45 -6 -90 0 -56 4 -88 15 -104 47 -72 158 -64
189 12 11 29 16 178 5 188 -2 2 -13 2 -23 -1 -18 -4 -20 -13 -19 -82 2 -95
-11 -122 -60 -122 -49 0 -59 19 -60 117 -1 73 -4 87 -19 89 -9 1 -19 -2 -22
-7z"/>
<path d="M3809 2094 c0 -13 -1 -60 -1 -104 0 -44 1 -89 1 -100 1 -18 8 -20 86
-20 78 0 85 2 85 20 0 15 -7 20 -27 21 -16 0 -44 1 -63 2 l-35 2 0 98 c1 53
-2 97 -5 98 -3 0 -13 2 -22 4 -13 2 -18 -4 -19 -21z"/>
<path d="M4161 2102 c-15 -28 -101 -222 -101 -227 0 -3 11 -5 23 -5 15 0 28 8
34 22 9 20 18 23 72 24 57 0 64 -2 74 -23 6 -14 19 -23 34 -23 12 0 23 3 23 6
0 9 -92 217 -100 227 -14 16 -50 16 -59 -1z m53 -92 c9 -22 16 -43 16 -45 0
-3 -18 -5 -41 -5 -22 0 -39 3 -37 8 2 4 10 24 18 45 8 20 17 37 21 37 4 0 14
-18 23 -40z"/>
<path d="M4360 2093 c0 -13 3 -22 8 -22 4 1 22 1 39 0 l32 -1 -2 -100 -2 -100
26 0 26 0 -1 100 -1 100 38 0 c32 0 37 3 37 23 0 21 -3 22 -100 22 -98 1 -100
0 -100 -22z"/>
<path d="M4720 2109 c-37 -14 -63 -56 -67 -108 -7 -80 43 -136 120 -135 54 1
83 17 107 57 67 109 -40 232 -160 186z m84 -39 c44 -16 62 -81 36 -131 -12
-21 -68 -34 -100 -24 -50 16 -56 109 -9 148 24 19 37 21 73 7z"/>
<path d="M5020 2111 c-13 -5 -16 -27 -16 -123 0 -116 0 -118 23 -118 20 0 23
5 23 40 0 36 3 40 24 40 16 0 35 -13 56 -40 24 -31 39 -40 62 -40 l30 0 -37
43 c-24 27 -32 43 -23 45 18 3 39 39 45 73 3 18 -4 35 -20 54 -20 24 -31 28
-87 30 -36 1 -72 -1 -80 -4z m136 -67 c9 -35 -7 -47 -61 -49 l-45 -2 0 39 0
38 50 0 c45 0 50 -2 56 -26z"/>
</g>
</svg>
