<?xml version="1.0" encoding="utf-8"?>
<!-- Generator: Adobe Illustrator 17.0.0, SVG Export Plug-In . SVG Version: 6.00 Build 0)  -->
<!DOCTYPE svg PUBLIC "-//W3C//DTD SVG 1.1//EN" "http://www.w3.org/Graphics/SVG/1.1/DTD/svg11.dtd">
<svg version="1.1" id="Layer_1" xmlns="http://www.w3.org/2000/svg" xmlns:xlink="http://www.w3.org/1999/xlink" x="0px" y="0px"
	 width="1200px" height="1000px" viewBox="0 0 1200 1000" enable-background="new 0 0 1200 1000" xml:space="preserve">
<g>
	<g>
		<g>
			<path fill="#32B7A3" d="M575.935,597.465c-3.365,3.319-7.711,4.861-12.431,4.861c-12.151,0-17.292-8.366-17.339-16.871
				c-0.047-8.553,5.515-17.245,17.339-17.245c4.44,0,8.645,1.682,12.01,5.001l-4.113,3.972c-2.149-2.103-5.047-3.085-7.897-3.085
				c-7.898,0-11.31,5.889-11.263,11.357c0.047,5.422,3.178,11.076,11.263,11.076c2.85,0,6.075-1.168,8.225-3.318L575.935,597.465z"
				/>
			<path fill="#32B7A3" d="M610.518,595.41h-17.104l-2.805,6.168h-6.683l14.675-32.714h6.729l14.675,32.714h-6.73L610.518,595.41z
				 M601.965,575.734l-6.075,13.926h12.15L601.965,575.734z"/>
			<path fill="#32B7A3" d="M638.79,568.864v27.012h16.824v5.702h-22.992v-32.714H638.79z"/>
			<path fill="#32B7A3" d="M698.141,597.465c-3.365,3.319-7.711,4.861-12.431,4.861c-12.152,0-17.292-8.366-17.339-16.871
				c-0.046-8.553,5.515-17.245,17.339-17.245c4.44,0,8.645,1.682,12.01,5.001l-4.113,3.972c-2.149-2.103-5.046-3.085-7.897-3.085
				c-7.898,0-11.31,5.889-11.263,11.357c0.047,5.422,3.179,11.076,11.263,11.076c2.851,0,6.075-1.168,8.225-3.318L698.141,597.465z"
				/>
			<path fill="#32B7A3" d="M739.171,568.911v18.74c0,9.674-5.935,14.627-14.161,14.627c-7.851,0-14.534-4.766-14.534-14.627v-18.74
				h6.122v18.74c0,5.888,3.365,9.019,8.459,9.019c5.094,0,7.991-3.411,7.991-9.019v-18.74H739.171z"/>
			<path fill="#32B7A3" d="M760.715,568.864v27.012h16.824v5.702h-22.992v-32.714H760.715z"/>
			<path fill="#32B7A3" d="M814.458,595.41h-17.104l-2.805,6.168h-6.683l14.675-32.714h6.729l14.675,32.714h-6.73L814.458,595.41z
				 M805.906,575.734l-6.075,13.926h12.15L805.906,575.734z"/>
			<path fill="#32B7A3" d="M839.181,574.472h-10.375v-5.608c9.44,0,17.432,0,26.919,0v5.608h-10.375v27.106h-6.168V574.472z"/>
			<path fill="#32B7A3" d="M900.962,585.408c-0.094,8.459-5.281,16.918-16.778,16.918c-11.497,0-16.825-8.272-16.825-16.871
				c0-8.599,5.515-17.245,16.825-17.245C895.447,568.21,901.056,576.856,900.962,585.408z M873.435,585.548
				c0.14,5.375,3.038,11.123,10.749,11.123s10.608-5.794,10.702-11.169c0.094-5.515-2.991-11.684-10.702-11.684
				S873.295,580.034,873.435,585.548z"/>
			<path fill="#32B7A3" d="M943.862,601.578h-7.338l-9.533-10.936h-5.936v10.936h-6.168v-32.761c5.188,0,10.375,0.047,15.563,0.047
				c7.711,0.047,11.776,5.188,11.776,10.843c0,4.486-2.057,9.019-8.271,10.281l9.907,11.17V601.578z M921.055,574.612v10.469h9.394
				c3.925,0,5.608-2.617,5.608-5.234c0-2.617-1.73-5.234-5.608-5.234H921.055z"/>
		</g>
	</g>
	<g>
		<g>
			<path fill="#35A7D7" d="M507.45,504.739c2.668-16.197-5.145-23.438-9.908-19.627c-5.717,4.383-6.479,22.676,7.813,28.202
				C506.116,510.646,506.878,507.788,507.45,504.739z"/>
			<path fill="#35A7D7" d="M512.023,523.603c-8.003,17.722-23.057,33.347-41.731,31.632c-12.201-1.196-22.596-8.477-27.752-20.469
				c-12.31,17.142-36.353,28.577-57.805,23.899c-23.057-5.145-49.354-30.679-38.683-80.985
				c13.339-61.549,60.024-86.13,86.321-79.651c23.247,5.907,24.772,48.019-0.571,67.265c-20.961,15.816-33.538-8.575-33.538-8.575
				c33.156-9.908,46.305-46.114,28.964-51.259c-17.15-5.145-41.922,20.199-54.689,69.361c-9.909,38.302,5.145,68.981,23.819,72.792
				c14.071,2.945,34.033-8.022,43.379-22.52c-0.824-4.942-0.914-10.411-0.125-16.353c3.621-26.869,23.057-45.352,45.733-43.447
				l2.668,0.381l2.858-1.906c12.386-7.051,32.204,4.573,26.868,40.969c-0.381,3.239-1.143,6.479-2.096,9.718
				c3.531-0.733,6.916-2.813,10.021-5.697c0.504-4.527,0.771-9.124,0.771-13.785c0-68.112-55.215-123.327-123.327-123.327
				s-123.327,55.215-123.327,123.327s55.215,123.327,123.327,123.327c59.402,0,108.989-41.999,120.701-97.921
				C520.296,522.293,516.38,523.442,512.023,523.603z"/>
			<path fill="#35A7D7" d="M464.576,504.358c-3.24,20.198,2.096,33.347,13.72,33.919c8.194,0.762,17.15-5.717,23.057-16.197
				c-20.389-6.288-26.297-35.062-17.912-50.687C475.437,471.201,467.624,484.921,464.576,504.358z"/>
		</g>
	</g>
	<path fill="#35A7D7" d="M584.048,463.007c12.766-8.575,24.58,4.573,24.58,4.573s-4.192,3.239-8.003,26.297
		c13.148-22.295,29.154-32.394,38.873-30.108c8.193,2.287,10.671,16.96,4.382,43.637c-4.192,17.531-5.336,32.966,0.572,34.3
		c6.288,1.334,16.387-10.29,21.341-24.01h0.191c3.43-1.143,6.48,1.334,4.193,7.432c-7.241,18.483-23.248,31.632-36.014,29.917
		c-13.149-1.715-21.152-18.102-14.292-43.827c6.097-22.676,4.573-29.536,0.763-30.299c-3.621-0.952-11.052,6.479-22.676,34.491
		c-4.574,35.824-10.1,41.16-24.011,35.824c0,0-0.762-2.668-0.762-9.147C572.995,498.26,572.042,471.011,584.048,463.007z"/>
	<path fill="#35A7D7" d="M674.177,485.683c-4.765-4.764-8.576-10.671-6.861-17.531c1.525-7.622,17.722-17.15,21.724-12.958
		c3.049,3.049,2.287,12.958,1.143,19.627c-0.191,0.381-0.191,0.763-0.191,0.763c1.144,0.953,2.478,1.524,4.002,2.286
		c12.577,6.86,28.393,18.675,31.251,35.443c8.004-2.477,14.482-6.478,17.531-15.053c0,0,0,0,0.381,0
		c3.43-1.334,6.479,1.334,4.002,7.241c-4.002,10.1-12.386,15.435-21.914,18.484v0.381c-4.573,26.868-36.205,34.299-49.353,25.915
		c-9.91-6.67-4.383-20.77,10.29-27.249c4.191-1.715,8.384-3.049,12.386-4.192c0.38-11.433-5.908-20.008-13.53-25.153
		c-4.573,12.195-10.861,23.438-16.959,35.443c-2.858,5.717-6.86,5.145-8.003,1.715c-0.191-0.191-0.191-0.191-0.191-0.191
		C665.601,519.793,672.081,499.594,674.177,485.683z M696.853,528.939c-4.383,0.572-8.576,1.525-11.815,2.668
		c-6.669,2.287-7.812,9.909-3.621,12.005C685.991,545.898,692.851,542.469,696.853,528.939z"/>
	<path fill="#35A7D7" d="M759.161,487.97c4.383-10.29,12.577-20.961,24.772-22.485c15.816-1.906,24.772,14.673,18.483,41.16
		c-8.003,35.062-35.633,48.972-48.782,46.114c-11.623-2.477-20.008-13.529-20.198-29.726c-0.191-30.489,6.479-87.464,17.912-103.661
		c12.195-17.15,29.345,3.049,29.345,3.049S767.736,438.807,759.161,487.97z M755.16,515.219
		c-1.525,14.292-2.096,27.249,3.049,28.202c5.717,0.953,15.435-13.72,19.627-32.204c3.81-15.816,3.62-31.632-2.287-32.394
		C769.832,478.252,760.305,491.972,755.16,515.219z"/>
	<path fill="#35A7D7" d="M852.529,517.696c3.43-1.143,6.48,1.334,4.193,7.432c-7.241,18.293-20.389,33.156-35.253,29.345
		c-14.292-3.811-19.246-29.917-12.195-60.406c5.717-23.247,19.627-31.251,34.3-20.77c0,0-8.004,13.339-12.195,32.585
		c-4.193,19.437-3.811,36.396,1.715,37.539c6.288,1.334,14.291-12.005,19.246-25.725H852.529z M835.57,463.389
		c-8.956-2.478-11.814-10.862-10.099-18.865c2.478-11.243,12.767-14.291,22.104-10.099c11.625,4.954,11.814,12.005,6.669,20.58
		C850.053,461.864,842.049,465.294,835.57,463.389z"/>
	<path fill="#35A7D7" d="M879.396,528.749c3.049,7.431,8.003,13.529,13.72,14.673c17.912,3.621,31.823-11.052,36.777-25.725h0.381
		c3.43-1.143,6.479,1.334,4.001,7.432c-6.097,15.435-25.534,34.109-52.973,29.345c-14.482-2.668-34.11-21.532-29.156-48.591
		c5.336-27.059,25.154-45.352,49.735-40.969C935.419,471.201,927.606,504.929,879.396,528.749z M877.299,522.079
		c22.295-15.625,25.724-47.257,19.055-49.163c-7.812-2.287-15.816,16.959-19.246,30.107
		C875.775,508.931,875.966,515.6,877.299,522.079z"/>
	
		<ellipse transform="matrix(0.9855 -0.1698 0.1698 0.9855 -70.9506 99.0676)" fill="#35A7D7" cx="543.609" cy="464.265" rx="16.093" ry="18.529"/>
	<path fill="#32B7A3" d="M562.375,486.366c-0.126-2.544-0.355-4.938-0.544-7.204c-3.12,5.148-8.018,8.844-13.954,9.867
		c-4.634,0.799-9.215-0.155-13.221-2.421c0.053,0.52,0.116,1.018,0.16,1.553c0.078,1.234,0.159,2.506,0.243,3.816
		c0.038,0.655,0.098,1.32,0.12,1.995c0.008,0.675,0.017,1.36,0.026,2.054c0.018,1.389,0.037,2.816,0.056,4.279
		c-0.053,1.463-0.107,2.962-0.163,4.496c-0.017,1.539-0.183,3.103-0.317,4.705c-0.149,1.601-0.23,3.246-0.496,4.904
		c-0.766,6.671-2.226,13.825-4.455,21.285c-4.447,14.89-12.243,31.106-24.555,46.021c-6.165,7.424-13.416,14.495-21.709,20.838
		c-8.281,6.362-17.718,11.798-27.95,16.218c-1.262,0.596-2.582,1.064-3.891,1.571c-1.313,0.501-2.63,1.003-3.952,1.507
		c-1.346,0.439-2.697,0.879-4.051,1.32l-2.036,0.667c-0.322,0.09,0.155-0.027,0.001,0.012l-0.28,0.076l-0.56,0.151l-1.121,0.303
		c-1.495,0.404-2.995,0.809-4.499,1.215c-0.789,0.232-1.39,0.314-2.093,0.479l-2.042,0.441c-2.666,0.654-5.619,1.061-8.507,1.556
		c-5.821,0.781-11.755,1.379-17.767,1.365c-3.007,0.115-6.023-0.103-9.06-0.183c-1.515-0.099-3.029-0.254-4.55-0.376l-2.284-0.195
		l-2.276-0.31c-12.174-1.526-24.351-4.87-36.015-9.88c-5.845-2.488-11.489-5.521-17.005-8.83
		c-5.502-3.344-10.727-7.188-15.765-11.302c-5.024-4.141-9.683-8.748-14.109-13.594c-4.413-4.867-8.373-10.154-12.07-15.634
		c-3.674-5.503-6.83-11.354-9.704-17.35c-2.812-6.031-5.109-12.303-7.105-18.68l-1.327-4.912c-0.213-0.833-0.494-1.727-0.651-2.511
		l-0.513-2.386c-0.321-1.607-0.745-3.146-0.991-4.812l-0.816-4.946c-0.884-6.621-1.454-13.297-1.395-19.979
		c0.091-6.673,0.513-13.352,1.554-19.936c1.063-6.574,2.462-13.095,4.434-19.433c1.998-6.323,4.315-12.539,7.154-18.492
		c2.869-5.931,6.015-11.715,9.644-17.153c7.218-10.893,15.858-20.694,25.576-28.955l1.805-1.566l1.875-1.472
		c1.254-0.974,2.487-1.972,3.752-2.923c2.597-1.804,5.112-3.716,7.801-5.338c5.25-3.451,10.782-6.334,16.343-8.991
		c2.826-1.23,5.603-2.547,8.48-3.572c1.43-0.532,2.838-1.118,4.276-1.605c1.444-0.47,2.885-0.939,4.32-1.406l2.072-0.669
		l2.233-0.603c1.486-0.401,2.967-0.801,4.444-1.2c1.443-0.316,2.881-0.631,4.315-0.944c1.434-0.306,2.85-0.649,4.317-0.857
		c11.614-2.021,23.18-2.682,34.291-1.846c11.112,0.811,21.763,2.891,31.678,5.938c19.851,6.158,36.544,16.198,49.483,27.118
		c6.484,5.468,12.103,11.14,16.815,16.794c1.236,1.366,2.305,2.82,3.404,4.202c1.087,1.391,2.177,2.734,3.123,4.133
		c0.975,1.38,1.928,2.727,2.857,4.042c0.866,1.358,1.71,2.682,2.532,3.972c4.029,6.414,7.004,12.276,9.229,17.276
		c0.193-0.059,0.392-0.106,0.588-0.159c-2.077-5.106-4.892-11.124-8.766-17.751c-0.788-1.328-1.598-2.691-2.428-4.089
		c-0.896-1.357-1.815-2.748-2.755-4.172c-0.912-1.446-1.969-2.837-3.024-4.279c-1.066-1.433-2.104-2.94-3.31-4.362
		c-4.591-5.878-10.109-11.817-16.533-17.594c-12.82-11.533-29.559-22.369-49.825-29.372c-10.122-3.468-21.073-5.975-32.593-7.185
		c-11.518-1.233-23.6-0.938-35.827,0.794c-1.529,0.169-3.072,0.485-4.619,0.765c-1.544,0.29-3.094,0.58-4.648,0.872
		c-1.488,0.352-2.982,0.704-4.48,1.058l-2.25,0.532l-0.37,0.094l-0.285,0.083l-0.57,0.165l-1.142,0.332
		c-1.525,0.443-3.054,0.888-4.587,1.334c-1.529,0.464-3.029,1.03-4.553,1.544c-3.064,0.988-6.035,2.275-9.06,3.483
		c-5.959,2.613-11.911,5.486-17.595,8.963c-2.906,1.635-5.642,3.569-8.463,5.406c-1.376,0.967-2.722,1.984-4.089,2.979l-2.045,1.506
		l-1.976,1.604c-10.629,8.471-20.208,18.648-28.331,30.101c-4.081,5.718-7.67,11.827-10.965,18.13
		c-3.265,6.325-5.99,12.96-8.371,19.749c-2.354,6.804-4.108,13.837-5.49,20.965c-1.36,7.139-2.063,14.416-2.389,21.723
		c-0.295,7.315,0.086,14.66,0.834,21.972l0.724,5.469c0.214,1.816,0.643,3.692,0.959,5.536l0.519,2.779
		c0.168,0.942,0.394,1.733,0.589,2.608l1.258,5.302c1.967,7.1,4.293,14.119,7.2,20.912c2.969,6.758,6.285,13.381,10.185,19.654
		c3.923,6.249,8.174,12.301,12.942,17.914c4.781,5.592,9.858,10.928,15.358,15.769c5.514,4.814,11.275,9.33,17.367,13.307
		c6.106,3.942,12.395,7.573,18.935,10.611c13.053,6.113,26.822,10.375,40.726,12.575l2.601,0.434l2.613,0.313
		c1.741,0.198,3.478,0.427,5.216,0.594c3.484,0.217,6.953,0.557,10.419,0.548c6.929,0.226,13.799-0.225,20.559-0.925
		c3.377-0.46,6.688-0.815,10.145-1.527l2.562-0.479c0.824-0.166,1.771-0.31,2.483-0.497c1.516-0.358,3.028-0.715,4.535-1.071
		l1.13-0.267l0.564-0.133l0.282-0.067l0.556-0.151l2.384-0.692c1.587-0.464,3.17-0.926,4.747-1.387
		c1.555-0.534,3.105-1.067,4.65-1.598c1.542-0.541,3.093-1.047,4.588-1.686c12.089-4.759,23.354-10.792,33.335-17.953
		c9.995-7.142,18.82-15.212,26.39-23.765c15.13-17.173,25.055-36.161,30.953-53.839c2.958-8.854,4.982-17.407,6.174-25.422
		c0.373-1.994,0.553-3.972,0.791-5.901c0.225-1.931,0.473-3.819,0.564-5.676c0.125-1.856,0.247-3.669,0.365-5.438
		c0.036-1.773,0.072-3.502,0.106-5.185c0.014-0.842,0.028-1.674,0.042-2.494c-0.002-0.82-0.042-1.627-0.062-2.424
		C562.473,489.414,562.423,487.867,562.375,486.366z"/>
</g>
</svg>
